<?xml version="1.0" encoding="utf-8"?>
<!-- Generator: Adobe Illustrator 17.0.0, SVG Export Plug-In . SVG Version: 6.00 Build 0)  -->
<!DOCTYPE svg PUBLIC "-//W3C//DTD SVG 1.1//EN" "http://www.w3.org/Graphics/SVG/1.1/DTD/svg11.dtd">
<svg version="1.1" id="Camada_1" xmlns="http://www.w3.org/2000/svg" xmlns:xlink="http://www.w3.org/1999/xlink" x="0px" y="0px"
	 width="200px" height="60px" viewBox="0 0 200 60" enable-background="new 0 0 200 60" xml:space="preserve">
<g>
	<g>
		<path fill="#025C98" d="M34.1,50.5c5.6-0.9,4.5-6.3,0.1-8.3c-6-2.7-10.6,6.7-7.6,11.3c3.8,5.8,12,4,17,1
			c6.8-4,11.3-10.9,11.1-18.9c-0.3-12.1-12-22.6-24-19.8C16.6,19,17.9,39,31.8,41.4c1.6,0.3,2.3-2.1,0.7-2.4
			c-9.4-1.6-13.4-14.2-4.5-19.5c4.7-2.8,10.1-1.9,14.7,0.5c5.8,3,8.9,9.3,9.5,15.6c0.6,6.1-2.8,11.3-7.3,15
			c-3.2,2.7-6.9,4.2-11.1,4.2c-5.4-0.1-8-8.3-2.5-10.4c2.4-1,6.3,3.1,2.2,3.8C31.9,48.3,32.6,50.7,34.1,50.5L34.1,50.5z"/>
	</g>
</g>
<g>
	<g>
		<path fill="#025C98" d="M26.5,50.3c-2.4,1.2-3-4-5.7-2.4c-2.9,1.7-4.1,3.2-6.5-0.5c-1-1.5-1.7-3.1-2.3-4.8
			c-2.2-6.1-2.5-12.3,2-17.4c4.6-5.2,12-8.2,18.9-7.5c1.6,0.2,1.6-2.3,0-2.5c-7.8-0.9-15.2,2.8-20.6,8.2c-5.2,5.2-4.9,12.1-3,18.7
			c1.1,3.9,3.7,10.6,8.4,11c0.5,0,1.4-0.3,1.8-0.7c0.7-0.9,1.5-1.5,2.6-1.8c0.4,0.5,0.5,1.2,1,1.6c1.4,1.4,3.2,1,4.8,0.2
			C29.2,51.7,27.9,49.5,26.5,50.3L26.5,50.3z"/>
	</g>
</g>
<g>
	<path fill="#025C98" d="M37.6,32.5c0,0,0.1-0.4,0.3-0.9c0.1-0.3,0.3-0.6,0.6-0.8c0.3-0.3,0.6-0.6,1-0.7c0.2-0.1,0.5-0.1,0.7-0.1
		c0.3,0,0.5,0.1,0.7,0.2c0.2,0.1,0.3,0.3,0.5,0.4c0.1,0.1,0.2,0.3,0.3,0.5c0.1,0.3,0.1,0.5,0.2,0.7c0,0.2,0,0.3,0,0.3
		s-0.1-0.1-0.2-0.2c-0.1-0.1-0.3-0.3-0.5-0.5c-0.1-0.1-0.2-0.2-0.3-0.3c-0.1-0.1-0.2-0.2-0.3-0.2c-0.1-0.1-0.2,0-0.3,0
		c-0.1,0-0.2,0-0.4,0.1c-0.3,0.1-0.5,0.3-0.8,0.5c-0.3,0.2-0.5,0.4-0.7,0.5C37.9,32.2,37.6,32.5,37.6,32.5z"/>
</g>
<path fill="none" stroke="#025C98" stroke-miterlimit="10" d="M42.6,49.4c0,0,2.2,1.7,1.9,3"/>
<g>
	<path fill="#025C98" d="M46.6,44.7c0,0,0.3-0.1,0.7,0c0.4,0,1,0.2,1.5,0.5c0.2,0.2,0.5,0.3,0.7,0.6c0.2,0.2,0.3,0.5,0.4,0.7
		c0.1,0.2,0.1,0.5,0,0.6c0,0.1-0.1,0.2-0.1,0.2s0-0.1-0.1-0.2c-0.1-0.1-0.2-0.2-0.3-0.3c-0.3-0.2-0.7-0.5-1.1-0.7
		c-0.4-0.3-0.9-0.6-1.2-0.8C46.8,44.9,46.6,44.7,46.6,44.7z"/>
</g>
<g>
	<path fill="#025C98" d="M49.3,39.2c0,0,0.3-0.2,0.7-0.2c0.4-0.1,1-0.1,1.6,0.1c0.3,0.1,0.6,0.2,0.8,0.3c0.2,0.1,0.5,0.3,0.6,0.6
		c0.1,0.2,0.2,0.4,0.2,0.6c0,0.1,0,0.2,0,0.2s-0.1,0-0.2-0.1c-0.1-0.1-0.2-0.1-0.4-0.2c-0.3-0.1-0.8-0.2-1.3-0.4
		c-0.5-0.1-1-0.3-1.4-0.4C49.5,39.4,49.3,39.2,49.3,39.2z"/>
</g>
<g>
	<path fill="#025C98" d="M41.9,49.6c0,0,0.3-0.1,0.7,0c0.4,0,1,0.2,1.5,0.5c0.2,0.2,0.5,0.3,0.7,0.6c0.2,0.2,0.4,0.5,0.4,0.7
		c0.1,0.2,0.1,0.5,0,0.6c0,0.1-0.1,0.2-0.1,0.2s0-0.1-0.1-0.2c-0.1-0.1-0.2-0.2-0.3-0.3c-0.3-0.2-0.7-0.5-1.1-0.7
		c-0.4-0.3-0.9-0.6-1.2-0.8C42.2,49.9,41.9,49.6,41.9,49.6z"/>
</g>
<g>
	<path fill="none" stroke="#3F341D" stroke-miterlimit="10" d="M6.4,29.7c-4.1,1.1,2.8,5.3,0.3,6.8"/>
	<path fill="none" stroke="#3F341D" stroke-miterlimit="10" d="M6,35.7c-0.8-2.1,1.6-4.1,0-6.1"/>
	<path fill="none" stroke="#3F341D" stroke-miterlimit="10" d="M6.2,29.8c-2.7-1-0.8,4.3-1.3,5.2"/>
	<path fill="none" stroke="#3F341D" stroke-miterlimit="10" d="M57.7,29c-4.1,1.1,2.8,5.3,0.3,6.8"/>
	<path fill="none" stroke="#3F341D" stroke-miterlimit="10" d="M57.3,35c-0.8-2.1,1.6-4.1,0-6.1"/>
	<path fill="none" stroke="#3F341D" stroke-miterlimit="10" d="M57.5,29.1c-2.7-1-0.8,4.3-1.3,5.2"/>
	<path fill="#4F4017" d="M10.4,24.2c0,0,29.9,0.2,41.2-0.5c0,0,6.3,0.8,0,3.4c0,0-34.3,1.5-41.2,0.7C3.5,26.9,9.2,24.2,10.4,24.2z"
		/>
	<polygon fill="#D6DE23" points="31.4,24.6 31.8,25.4 32.8,25.6 32.1,26.2 32.2,27.2 31.4,26.7 30.6,27.2 30.7,26.2 30,25.6 
		31,25.4 	"/>
	<polygon fill="#D6DE23" points="37.4,24.6 37.8,25.4 38.7,25.6 38,26.2 38.2,27.2 37.4,26.7 36.5,27.2 36.7,26.2 36,25.6 
		36.9,25.4 	"/>
	<polygon fill="#D6DE23" points="25.4,24.6 25.9,25.4 26.8,25.6 26.1,26.2 26.3,27.2 25.4,26.7 24.6,27.2 24.8,26.2 24.1,25.6 
		25,25.4 	"/>
	<polygon fill="#D6DE23" points="19.8,24.6 20.2,25.4 21.2,25.6 20.5,26.2 20.7,27.2 19.8,26.7 19,27.2 19.1,26.2 18.5,25.6 
		19.4,25.4 	"/>
	<polygon fill="#D6DE23" points="43,24.2 43.4,25.1 44.3,25.2 43.7,25.9 43.8,26.8 43,26.4 42.1,26.8 42.3,25.9 41.6,25.2 
		42.6,25.1 	"/>
	<path fill="#704C39" d="M5.7,30.3c26.2-15.2,52.1-0.6,52.1-0.6c0-15.3-12.2-27.7-27.4-27.7C16.8,1.9,5.7,14.7,5.7,30.5"/>
</g>
<g>
	<path fill="#D6DE23" d="M18.4,17.7L18.4,17.7L18,18l-0.3,0.2l-0.1,0l-0.2,0.1l-0.1,0l-0.1,0l-0.1,0L17,18.2l-0.1,0l-0.3-0.1l-0.1,0
		l-0.3-0.1l-0.1,0L16,17.8l-0.1,0l0,0l-0.1,0l-0.2,0.1l-0.1,0l0,0.1l0,0.1l0.2,0.3l0.1,0.1l0.2,0.3l0.1,0.1l0.1,0.1l0,0.1l0,0.1
		l0,0.1l0,0l0,0l-0.1,0l-0.2,0.1l-0.2,0.2l-0.1,0l-0.2,0.1l-0.1,0l0,0l0,0l0-0.1l0-0.1L15,19.3l0-0.1L14.9,19l0-0.1l-0.2-0.2
		l-0.1-0.1l-0.2-0.2l0-0.1L14.2,18l0-0.1L14,17.7l0-0.1l-0.1-0.3l0-0.1L13.6,17l0-0.1l-0.2-0.3l0-0.1l-0.1-0.2l0-0.1l0,0l0-0.1
		l0-0.1l0,0l0,0l0.1-0.1l0.2-0.1l0.6-0.3l0.3-0.2l0.1,0l0.3-0.2l0.2-0.1l0.1,0l0.1,0l0.1,0l0.1,0l0.1,0l0.1,0l0.1,0l0.1,0l0.1,0
		l0.1,0l0.1,0l0.1,0l0.1,0.1l0.1,0l0.1,0.1l0.1,0l0.1,0.1l0.1,0.1l0.1,0.1l0.1,0.1l0.1,0.1l0,0.1l0,0.1l0,0.1l0,0.1l0,0.1l0,0.1
		l0,0.1l0,0.1l0,0.1l0,0.1l0,0.1l0,0.1l0,0.1l-0.1,0.1l0,0.1l0,0.1L16.8,17l0,0l0,0l0.3,0.1l0.1,0l0.3,0.1l0.1,0l0.3,0.1l0.1,0
		l0.3,0.1L18.4,17.7L18.4,17.7L18.4,17.7z M15.8,16.8L15.8,16.8l0.1-0.1l0-0.1l0-0.1l0-0.1l0-0.1l0-0.1l-0.1-0.1L15.8,16L15.8,16
		l-0.1-0.1l-0.1,0l-0.1,0l-0.1,0l-0.1,0l-0.1,0L15,16.1l-0.1,0l-0.2,0.2l-0.1,0l0,0l0,0l0,0.1l0.1,0.1l0.1,0.1l0.1,0.1l0.1,0.1
		l0.2,0.3l0,0l0,0l0,0l0.1,0l0.3-0.1l0.1,0L15.8,16.8z"/>
	<path fill="#D6DE23" d="M22.6,15.7L22.6,15.7l0,0.1l0,0l-0.1,0l-0.1,0l-0.1,0l-0.1,0l-0.2,0.1l-0.3,0.2l-0.1,0l0,0l0,0l-0.3-0.4
		l-0.1,0l-0.1,0l-0.1,0L20.7,16l-0.1,0l-0.4,0.2l-0.3,0.1l-0.1,0l-0.1,0l-0.2,0.1l-0.1,0l0,0l0,0.1l0,0.4l0,0.1l0,0.1l-0.1,0.1
		l-0.1,0L19,17.4l-0.1,0l-0.3,0.2l-0.1,0l-0.1,0l-0.1,0l0-0.1l0,0l0-0.1l0-0.2l0-0.1l0-0.3l0-0.1l0-0.3l0-0.1l0-0.3l0-0.1l0-0.3
		l0-0.1l0-0.5l0-0.4l0-0.1l0-0.3l0-0.1l0-0.3l0-0.1l0-0.3l0-0.1l0-0.1l0.1,0l0.2-0.1l0.4-0.2l0.2-0.1l0.1,0l0.1,0l0.1,0.1l0.2,0.2
		l0.1,0.1l0.2,0.2l0.1,0.1l0.2,0.2l0.1,0.1l0.2,0.2l0.1,0.1l0.2,0.2l0.1,0.1l0.2,0.2l0.1,0.1l0.2,0.2l0.1,0.1l0.3,0.3l0.2,0.2
		l0.1,0.1l0.3,0.3L22.6,15.7z M20.3,15L20.3,15L20,14.6l-0.1-0.1l-0.2-0.3l-0.1-0.1l-0.1,0l-0.1,0l0,0l0,0.1l0,0.4l0,0.1l0,0.4
		l0,0.1l0,0.1l0.1,0l0.1,0l0.3-0.1l0.2-0.1l0.1,0L20.3,15L20.3,15z"/>
	<path fill="#D6DE23" d="M26,12.4L26,12.4l0,0.2l0,0.1l0,0.1l0,0.1l0,0.1l0,0.1l0,0.1l0,0.1l-0.1,0.1l0,0.1l-0.1,0.1l-0.1,0.1
		l-0.1,0.1l-0.1,0.1l-0.1,0.1l-0.1,0.1L25.4,14l-0.1,0l-0.1,0.1l-0.1,0l-0.1,0l-0.1,0l-0.1,0l-0.5,0.1l-0.1,0l-0.1,0l-0.1,0l-0.1,0
		l0,0l0,0.1l0.1,0.4l0,0.1l0,0.2l0,0.1l0,0.1l0,0.1l0,0l0,0l-0.1,0L24,15.6l-0.2,0l-0.1,0l-0.2,0.1l-0.1,0l-0.1,0l-0.1,0l0,0l0-0.1
		l0-0.1l0-0.1l-0.1-0.6l0-0.3l0-0.1l-0.1-0.3l0-0.1l-0.2-0.7l0-0.1l-0.1-0.3l0-0.1l-0.1-0.3l0-0.1l0-0.3l0-0.1l-0.1-0.2l0-0.1l0,0
		l0-0.1l0,0l0,0l0.1,0l0.2,0l0.1,0l0.1,0l0.4-0.1l0.4-0.1l0.4-0.1l0.4-0.1l0.2-0.1l0.1,0l0,0l0.1,0l0.1,0l0.1,0l0.1,0l0.1,0l0.1,0
		l0.1,0l0.1,0.1l0.1,0l0,0l0.1,0.1l0.1,0.1l0,0l0.1,0.1l0,0l0,0.1l0,0.1l0,0.1l0,0l0,0.1l0,0l0,0.1L26,12.4L26,12.4z M24.5,13.3
		L24.5,13.3l0.2-0.1l0,0l0.1-0.1l0,0l0-0.1l0,0l0-0.1l0,0v-0.1l0,0l0-0.1l0-0.1l0,0l0-0.1l0,0l-0.1-0.1l-0.1,0l-0.1,0l-0.2,0l-0.1,0
		l-0.1,0L24,12.4l-0.2,0l-0.1,0l0,0l-0.1,0l0,0l0,0l0,0.1l0,0.1l0.1,0.2l0,0.1l0.1,0.3l0,0.1l0,0l0.1,0l0.3,0L24.5,13.3z"/>
	<path fill="#D6DE23" d="M30.9,14.3L30.9,14.3l0,0.1l-0.1,0l-0.1,0l-0.1,0l-0.1,0l-0.1,0l-0.2,0l-0.3,0.1l-0.1,0l0,0l0-0.1L29.5,14
		l0-0.1l-0.1,0l-0.1,0l-0.3,0l-0.1,0l-0.4,0l-0.3,0l-0.1,0L28,14l-0.3,0l-0.1,0l0,0l0,0.1l-0.1,0.4l0,0.1l-0.1,0.1l-0.1,0l-0.1,0
		l-0.3,0l-0.1,0l-0.3,0.1l-0.1,0l-0.1,0l-0.1-0.1l0-0.1l0,0l0-0.1l0.1-0.2l0-0.1l0.1-0.3l0-0.1l0.1-0.3l0-0.1l0.1-0.3l0-0.1l0.1-0.3
		l0-0.1l0.2-0.5l0.1-0.4l0-0.1l0.1-0.3l0-0.1l0.1-0.3l0-0.1l0.1-0.2l0-0.1l0.1,0l0.1,0l0.3,0l0.4,0l0.3,0l0.1,0l0.1,0l0,0.1l0.1,0.2
		l0,0.1l0.2,0.2l0,0.1l0.2,0.3l0,0.1l0.1,0.3l0,0.1l0.2,0.3l0,0.1l0.2,0.3l0,0.1l0.1,0.3l0,0.1l0.2,0.3l0.2,0.2l0,0.1l0.2,0.3
		L30.9,14.3z M28.9,12.9L28.9,12.9l-0.2-0.4l0-0.1L28.5,12l0-0.1l-0.1,0l-0.1,0l-0.1,0L28.2,12l-0.1,0.4l0,0.1L28,12.9l0,0.1l0,0.1
		l0.1,0l0.1,0l0.4,0l0.3,0l0.1,0L28.9,12.9L28.9,12.9z"/>
	<path fill="#D6DE23" d="M35.3,12.7L35.3,12.7l0,0.2l0,0.1l0,0.1l0,0.1l0,0.1l0,0.1l0,0.1l0,0.1L35,13.7l0,0.1l-0.1,0.1l-0.1,0.1
		L34.7,14l-0.1,0.1l-0.1,0.1l-0.1,0.1l-0.1,0l-0.1,0.1l-0.1,0l-0.1,0l-0.1,0l-0.1,0l-0.1,0l-0.3,0h-0.1l-0.1,0l-0.1,0l-0.2,0l-0.1,0
		l-0.1,0l-0.2,0l-0.1,0l-0.1,0l-0.1,0l-0.4,0l-0.1,0l-0.2,0l0,0l0,0l0-0.1l0-0.1l0,0l0-0.2l0-0.1l0-0.1l0-0.1l0-0.1l0-0.1l0-0.3
		l0-0.1l0-0.3l0-0.1l0-0.1l0-0.1l0-0.1l0-0.1l0-0.1v-0.1l0-0.1V12l0-0.3l0-0.1l0-0.3l0-0.1l0-0.3l0-0.2l0-0.1l0-0.1l0-0.1l0,0l0.1,0
		l0.1,0l0.1,0l0.1,0l0.5,0l0.1,0l0.3,0l0,0l0.1,0l0.2,0h0.1l0.1,0l0.1,0l0.2,0l0.1,0l0.1,0l0.1,0l0.1,0l0.2,0.1l0.1,0l0.1,0l0.1,0.1
		l0.2,0.1l0.1,0.1l0.1,0.1l0.1,0.1l0.1,0.1l0,0.1l0,0.1l0.1,0.1l0,0.1l0,0.1l0,0.1l0,0.1l0,0.1l0,0.1l0,0.1l0,0.1l0,0.1l0,0.1V12.7
		L35.3,12.7z M34,13.1L34,13.1l0.1-0.2l0-0.1l0-0.1l0-0.1l0-0.1l0-0.2v-0.1l0-0.1l0-0.1l0,0l0-0.1L34,11.8l0,0L34,11.7l-0.1-0.1
		l-0.1-0.1l-0.1-0.1l-0.1,0l-0.1,0l-0.1,0l-0.1,0l-0.1,0l-0.1,0l-0.1,0l-0.1,0l-0.1,0l-0.1,0l0,0l0,0.1l0,0l0,0.1l0,0.2l0,0.1l0,0.1
		l0,0.1v0.1l0,0.1l0,0.1l0,0.3l0,0.1l0,0.1l0,0.1l0,0.1l0,0.1l0,0.1l0,0.1l0,0.1l0,0l0.1,0l0.5,0l0.1,0l0.1,0l0.1,0l0.1,0l0.1,0
		l0.1,0l0.1-0.1l0.1-0.1L34,13.1z"/>
	<path fill="#D6DE23" d="M39.7,13.6l0,0.2l0,0.1l0,0.1l0,0.1l-0.1,0.1l0,0.1l0,0.1l0,0.1l-0.1,0.1l0,0.1l-0.1,0.1l-0.1,0.1l-0.1,0.1
		L39,15L39,15l-0.1,0l-0.1,0.1l-0.1,0l-0.1,0l-0.1,0l-0.1,0l-0.1,0l-0.1,0l-0.1,0l-0.1,0l-0.1,0l-0.2,0l-0.3-0.1l-0.1,0l-0.1,0
		L36.9,15l-0.1,0l0,0l-0.1,0l0,0l-0.1-0.1l-0.1-0.1l-0.1-0.1l-0.1-0.1l-0.1-0.2l0-0.1l-0.1-0.1l0-0.1L36,14l0-0.1l0-0.1l0-0.1l0-0.1
		l0-0.1l0-0.1l0-0.1l0-0.1l0-0.1l0-0.2l0-0.1l0.1-0.3l0-0.1l0.1-0.3l0-0.1l0.1-0.3l0.1-0.5l0-0.2l0-0.1l0-0.1l0-0.1l0,0l0.1,0l0.2,0
		l0.2,0.1l0.1,0l0.2,0l0.1,0l0.1,0l0.1,0l0,0.1l0,0.1l0,0.1l0,0.1l-0.1,0.2l0,0.1l-0.1,0.3l0,0.1l-0.1,0.3l0,0.1l-0.1,0.3l0,0.1
		l-0.1,0.3l0,0.1l0,0.1l0,0.1l0,0.1l0,0.1l0,0.1l0,0.1l0.1,0.1l0.1,0.1l0.1,0.1l0.1,0l0.1,0l0.1,0l0.1,0l0.1,0l0.1,0l0.1,0l0.1-0.1
		l0.1-0.1l0.1-0.1l0.1-0.1l0-0.1l0-0.1l0.1-0.2l0-0.1l0.1-0.3l0-0.1l0.1-0.3l0-0.1l0.1-0.3l0-0.1l0.1-0.3l0-0.1l0-0.2l0-0.1l0-0.1
		l0.1,0l0.1,0l0.1,0l0.3,0.1l0.1,0l0.2,0l0.1,0l0.1,0l0.1,0l0,0l0,0.1l0,0.2l0,0.1l0,0.1l0,0.1L40,12.5l0,0.1l-0.1,0.3l0,0.1
		l-0.1,0.3L39.7,13.6z"/>
	<path fill="#D6DE23" d="M43.4,17L43.4,17L43,16.8l-0.3-0.1l-0.1,0l-0.2-0.1l-0.1,0l0,0l0-0.1l-0.1-0.3l0-0.1L42,15.8l0-0.1L42,15.4
		l0-0.1l-0.1-0.3l0-0.1l0,0l-0.1,0l-0.2-0.1l-0.1,0l-0.1,0l0,0.1l-0.1,0.3l0,0.1l-0.1,0.3l0,0.1l0,0.1l0,0.1l0,0.1l0,0.1l0,0l-0.1,0
		l-0.1,0l-0.2-0.1l-0.2-0.1l-0.1,0L40,15.7l-0.1,0l0,0l0-0.1l0-0.1l0-0.1l0.1-0.1l0-0.1l0.1-0.3l0-0.1l0.1-0.3l0-0.1l0.1-0.3l0-0.1
		l0.1-0.3l0-0.1l0.1-0.3l0-0.1l0.1-0.3l0-0.1l0.1-0.3l0-0.1l0.1-0.3l0-0.1l0.1-0.2l0-0.1l0,0l0-0.1l0,0l0.1,0l0,0l0.1,0l0.2,0.1
		l0.6,0.3l0.4,0.1l0.1,0l0.3,0.2l0.2,0.1l0.1,0l0.1,0l0.1,0.1l0.1,0.1l0.1,0.1l0.1,0.1l0.1,0.1l0.1,0.1l0.1,0.1l0,0.1l0,0.1l0,0.1
		l0,0.1l0,0.1l0,0.1l0,0.1l0,0.1l0,0.1l0,0.1l0,0.1l0,0.1l0,0.1l0,0.1l0,0.1L44,14.8L44,14.8l-0.1,0.1L43.9,15L43.8,15l-0.1,0.1
		l-0.1,0l-0.1,0l-0.1,0.1l-0.1,0l-0.1,0l-0.1,0l-0.1,0l-0.1,0h0l0,0l0.1,0.3l0,0.1l0.1,0.3l0,0.1l0.1,0.3l0,0.1l0.1,0.3l0,0.1
		L43.4,17L43.4,17z M42.6,14.4l0.1,0h0.1l0.1,0l0.1,0l0.1-0.1l0.1-0.1l0-0.1l0-0.1l0-0.1l0-0.1l0-0.1l0-0.1l0-0.1L43,13.5l-0.1-0.1
		l-0.1,0l-0.3-0.1l-0.1,0l-0.3-0.1l-0.1,0l0,0l0,0l0,0.1l0,0.1l0,0.1l0,0.1l0,0.1l-0.1,0.3l0,0.1l0,0l0,0l0.1,0l0.3,0.1l0.1,0
		L42.6,14.4z"/>
	<path fill="#D6DE23" d="M47.5,19.2L47.5,19.2l-0.1,0.1l-0.1,0l-0.1,0l-0.1,0l-0.1-0.1l-0.1,0l-0.2-0.1l-0.3-0.2l-0.1-0.1l0-0.1
		l0-0.1l0.1-0.5l0-0.1l0,0l-0.1,0l-0.3-0.2l-0.1,0l-0.4-0.2l-0.3-0.2l-0.1,0l-0.1,0l-0.2-0.1l-0.1,0l-0.1,0l-0.1,0l-0.3,0.3
		l-0.1,0.1l-0.1,0l-0.1,0l-0.1,0L44,17.3l-0.1,0l-0.3-0.2l-0.1,0l0-0.1l0-0.1l0-0.1l0,0l0.1-0.1l0.2-0.1l0.1-0.1l0.3-0.2l0.1-0.1
		l0.3-0.2l0.1-0.1l0.3-0.2l0.1-0.1l0.3-0.2l0.1-0.1l0.4-0.3l0.3-0.2L46,15l0.2-0.2l0.1-0.1l0.2-0.2l0.1-0.1l0.2-0.1l0.1,0l0.1,0
		l0.1,0l0.2,0.1l0.4,0.2l0.2,0.1l0.1,0.1l0,0.1l0,0.1l0,0.2l0,0.1l0,0.3l0,0.1l0,0.3l0,0.1l-0.1,0.3l0,0.1l0,0.3l0,0.1l0,0.3l0,0.1
		l0,0.3l0,0.1l0,0.4l0,0.3l0,0.1l0,0.4L47.5,19.2z M46.7,16.9L46.7,16.9l0.1-0.5l0-0.1l0.1-0.3l0-0.1l0-0.1l-0.1-0.1l-0.1,0l-0.1,0
		L46.3,16l-0.1,0.1L46,16.3l-0.1,0.1l0,0.1l0,0.1l0.1,0l0.3,0.2l0.2,0.1l0.1,0L46.7,16.9L46.7,16.9z"/>
</g>
<g>
	<path fill="#025C98" d="M77.4,18.4l0,0.3l0,0.3l0,0.4l-0.1,0.6l-0.1,0.4L77,20.9l-0.1,0.3l-0.2,0.4L76.4,22l-0.3,0.4l-0.3,0.3
		L75.5,23l-0.3,0.3l-0.3,0.2l-0.3,0.2l-0.5,0.2l-0.3,0.2l-0.4,0.2L73,24.4l-0.5,0.1l-0.3,0.1l-0.3,0l-0.4,0l-0.6,0h-2l-0.4,0l-0.4,0
		l-0.4,0l-0.3,0l-0.1,0.2l0,0.3l-0.1,1.6v0.4l0,0.7l0,0.3l0,0.5l0,0.3l-0.1,0.1l-0.1,0l-0.3,0l-0.7,0l-0.9,0h-0.4l-0.7,0l-0.4,0
		l-0.5,0l-0.3-0.1L62.6,29l0-0.3l0-0.3l0-0.4v-2.5l0.1-1.2v-0.4l-0.1-1.2v-0.4l0-2.8v-0.4l0.1-1.3v-0.4l-0.1-1.2v-0.4l0.1-1.2v-0.3
		l0-0.7l0-0.3l0-0.2l0-0.3l0.1-0.1l0.1-0.1l0.3,0l0.7,0l0.5,0h0.3l1.6,0h1.6l1.6,0.1h1.5l0.9,0l0.3,0h0.2l0.3,0.1l0.5,0.1l0.4,0.1
		l0.4,0.1l0.3,0.2l0.3,0.2l0.3,0.2l0.4,0.4l0.3,0.2l0.1,0.1l0.4,0.4l0.2,0.3l0.1,0.1l0.2,0.3l0.1,0.1l0.1,0.3l0.1,0.3l0.1,0.3l0,0.2
		l0.1,0.3l0,0.2l0.1,0.3l0.1,0.7V18.4z M70.4,20.7l0.4,0l0.4-0.1l0.2-0.1l0.3-0.2l0.1-0.1l0.2-0.2l0.1-0.1l0.2-0.3l0.1-0.2l0.1-0.4
		l0-0.2v-0.6l-0.1-0.3l-0.1-0.2l-0.1-0.3l-0.1-0.1L72,17l-0.2-0.1l-0.3-0.2l-0.6-0.2l-0.4,0h-0.5l-0.7,0l-1-0.1h-0.3l-0.2,0l-0.3,0
		l-0.1,0.1l-0.1,0.2l0,0.3v0.5l0.1,0.9l0,0.4l0,1.3l0,0.3l0.1,0.2l0.3,0.1l1.2,0.1L70.4,20.7z"/>
	<path fill="#025C98" d="M95.2,27.1l0,0.4l0,0.6l0,0.3l0,0.3L95.1,29L95,29.2l-0.3,0l-0.4,0l-1.3-0.1h-0.4l-1.2,0.1h-0.4l-0.3-0.1
		L90.6,29l0-0.3l-0.1-1.5l0-0.4l0-1.5v-0.4l0-1.5v-0.3l-0.1-0.2l-0.3-0.1h-0.6l-0.9,0.1l-0.4,0l-1.9,0l-1.3-0.1l-0.3,0l-0.2,0.1
		l-0.1,0.2l0,0.3l0,1.5v0.4l0,1.5l0,0.4l0.1,1v0.5l-0.1,0.3l-0.2,0.2L84,29.3l-0.3,0l-0.3,0l-1-0.1l-0.4,0l-1.1,0.1l-0.4,0h-0.2
		l-0.3,0l-0.2-0.1L79.8,29l0-0.3l0-0.2v-0.4l0-0.7v-2l0-1.2v-0.4l0-1.2v-0.4l-0.1-1.2v-0.4l0-1.2v-1.6l0-0.4l0.1-1.2l0-0.4l0-1.2
		l0-0.4l-0.1-0.8V13l0.1-0.3l0.2-0.2l0.3-0.1l0.3,0H81l1,0h0.4l0.9-0.1h0.4l0.3,0l0.3,0l0.2,0.2l0.1,0.3l0,0.2v0.3l-0.1,1l0,0.4
		l0,1.5v1.9l0,0.3l0.1,0.2l0.1,0.1l0.2,0l0.3,0h0.3l0.9-0.1l0.3,0l1.5,0l1.4,0.1H90l0.2,0l0.3-0.1l0.1-0.2l0-0.3l0.1-1.5v-0.4l0-1.5
		v-0.4l0-1.5l0.1-0.4l0.2-0.2l0.3,0h0.4l1.3,0.1h0.4l1-0.1l0.4,0h0.2l0.3,0l0.2,0.2l0.1,0.3v0.3l-0.1,0.9l0,0.4l0.1,1.2v0.4l0,1.2
		v0.4l0.1,1.2v0.4l-0.1,1.2v0.4l0,1.2v0.4l0,1.2v0.4l0,1.2V27.1z"/>
	<path fill="#025C98" d="M113.4,18.4l0,0.3l0,0.3l0,0.4l-0.1,0.6l-0.1,0.4l-0.2,0.5l-0.1,0.3l-0.2,0.4l-0.2,0.3l-0.3,0.4l-0.3,0.3
		l-0.3,0.3l-0.3,0.3l-0.3,0.2l-0.3,0.2l-0.5,0.2l-0.3,0.2l-0.4,0.2l-0.3,0.1l-0.5,0.1l-0.3,0.1l-0.3,0l-0.4,0l-0.6,0h-2l-0.4,0
		l-0.4,0l-0.4,0l-0.3,0l-0.1,0.2l0,0.3l-0.1,1.6v0.4l0,0.7l0,0.3l0,0.5l0,0.3l-0.1,0.1l-0.1,0l-0.3,0l-0.7,0l-0.9,0h-0.4l-0.7,0
		l-0.4,0l-0.5,0l-0.3-0.1L98.6,29l0-0.3l0-0.3l0-0.4v-2.5l0.1-1.2v-0.4l-0.1-1.2v-0.4l0-2.8v-0.4l0.1-1.3v-0.4l-0.1-1.2v-0.4
		l0.1-1.2v-0.3l0-0.7l0-0.3l0-0.2l0-0.3l0.1-0.1l0.1-0.1l0.3,0l0.7,0l0.5,0h0.3l1.6,0h1.6l1.6,0.1h1.5l0.9,0l0.3,0h0.2l0.3,0.1
		l0.5,0.1l0.4,0.1l0.4,0.1l0.3,0.2l0.3,0.2l0.3,0.2l0.4,0.4l0.3,0.2l0.1,0.1l0.4,0.4l0.2,0.3l0.1,0.1l0.2,0.3l0.1,0.1l0.1,0.3
		l0.1,0.3l0.1,0.3l0,0.2l0.1,0.3l0,0.2l0.1,0.3l0.1,0.7V18.4z M106.5,20.7l0.4,0l0.4-0.1l0.2-0.1l0.3-0.2l0.1-0.1l0.2-0.2l0.1-0.1
		l0.2-0.3l0.1-0.2l0.1-0.4l0-0.2v-0.6l-0.1-0.3l-0.1-0.2l-0.1-0.3l-0.1-0.1L108,17l-0.2-0.1l-0.3-0.2l-0.6-0.2l-0.4,0H106l-0.7,0
		l-1-0.1h-0.3l-0.2,0l-0.3,0l-0.1,0.1l-0.1,0.2l0,0.3v0.5l0.1,0.9l0,0.4l0,1.3l0,0.3l0.1,0.2l0.3,0.1l1.2,0.1L106.5,20.7z"/>
</g>
<g>
	<path fill="#025C98" d="M77.5,47.4l-0.3,0.1h-1.5l-1.2,0h-0.3l-1,0H73l-0.2-0.1l-0.2-0.2l-0.7-1L71.8,46l-0.7-0.9l-0.2-0.3l-0.6-1
		l-0.2-0.3l-0.7-0.9l-0.1-0.2l-0.1-0.1l-0.3,0l-0.7,0l-0.3,0l-0.2,0.1l-0.1,0.3l0,1.2l0,0.3l0.1,1.2l0,0.3l0,0.5v0.3l0,0.3l0,0.3
		l-0.1,0.1l-0.2,0.1h-0.3l-1-0.1l-1,0.1h-0.3l-1-0.1l-0.3,0l-0.1-0.1l0-0.2l0-0.3l0-0.3l0-0.5l0-0.3l0.1-1.1v-0.3l-0.1-1.1l0-0.3
		l0-1.1v-0.3l0.1-1.1v-0.3l-0.1-1.1v-0.3l0.1-1.1v-0.3l0-1.1v-0.3l0-1.1v-0.3l0-0.7l0-0.3l0-0.1l0.1-0.3l0.1-0.2l0.3-0.1l0.2,0
		l0.3,0l1,0l2.5,0.1l1.4-0.1h0.3l1.4,0.1h0.8l0.4,0l0.3,0.1l0.4,0.1l0.3,0.1l0.3,0.1l0.3,0.1l0.3,0.1l0.3,0.2l0.4,0.3l0.2,0.2
		l0.2,0.2l0.2,0.3l0.3,0.4l0.2,0.3l0.3,0.4l0.1,0.3l0.1,0.3l0.1,0.3l0.1,0.3l0,0.3l0,0.5v0.3l0,0.3l0,0.4l-0.1,0.4l-0.1,0.3
		l-0.1,0.3l-0.1,0.3l-0.2,0.3L76,40.2l-0.2,0.3l-0.2,0.2L75.3,41L75,41.2l-0.4,0.2l-0.3,0.1l-0.3,0.1l-0.3,0.1l-0.2,0.1l0.1,0.2
		l0.8,1.1l0.2,0.3l0.8,1l0.2,0.3l0.8,1.1l0.2,0.3l0.7,0.8l0.2,0.2l0.1,0.2L77.5,47.4z M71.1,39.2l0.5-0.1l0.3-0.1l0.3-0.1l0.2-0.3
		l0.1-0.3l0.1-0.3l0-0.3l0-0.4l0-0.4l-0.1-0.3l-0.1-0.3L72.1,36l-0.2-0.2l-0.3-0.1l-0.5-0.1l-0.3,0l-1.1,0h-0.3l-1.1,0.1l-0.3,0
		l-0.1,0.1l-0.1,0.1l0,0.2l0,0.5l0,0.3l0,0.4l0,0.4l0,1.2l0,0.2l0,0.1l0.1,0.1l0.3,0l1.1,0.1h0.3L71.1,39.2z"/>
	<path fill="#025C98" d="M95.6,46.8l0.1,0.3l-0.1,0.2l-0.2,0.1l-0.3,0h-0.3l-0.5,0l-0.3,0h-1l-1.3,0.1l-0.3-0.1l-0.1-0.2l-0.1-0.2
		l-0.7-1.8l-0.1-0.2l-0.2,0l-0.3,0l-1.3-0.1h-0.3l-1.6,0l-1.3,0h-0.3l-0.3,0h-1l-0.3,0L83.4,45l-0.1,0.3l-0.5,1.4l-0.1,0.3l-0.2,0.3
		l-0.3,0.1l-0.3,0l-1.2-0.1h-0.3l-1.3,0.1l-0.3,0l-0.3-0.1l-0.2-0.2l0-0.3l0-0.2l0.1-0.3l0.3-0.7l0.1-0.3l0.5-1.2l0.1-0.3l0.5-1.2
		l0.1-0.3l0.5-1.1l0.1-0.3l0.6-1.2l0.1-0.3l0.8-1.7l0.6-1.3l0.1-0.3l0.5-1l0.1-0.3l0.4-1l0.1-0.3l0.4-0.9l0.1-0.2l0.2-0.1l0.3-0.1
		l1,0h1.6l1,0l0.4,0.1l0.2,0.2l0.1,0.3l0.3,0.8l0.1,0.3l0.5,1l0.1,0.3l0.5,1l0.1,0.3l0.4,1.1l0.1,0.3l0.5,1l0.1,0.3l0.5,1l0.1,0.3
		l0.4,1.1l0.1,0.3l0.7,1.3l0.5,1l0.1,0.3l0.6,1.3L95.6,46.8z M88.5,40.9l-0.1-0.3L88,39.2l-0.1-0.3l-0.4-1.2l-0.1-0.3l-0.2-0.1
		l-0.3-0.1l-0.2,0.1l-0.2,0.2l-0.6,1.4l-0.1,0.3l-0.5,1.4l-0.1,0.3l0.1,0.3l0.2,0.1l0.3,0H87l1,0.1l0.3-0.1l0.2-0.2L88.5,40.9z"/>
	<path fill="#025C98" d="M111.5,37.6l0,0.3l0,0.3l0,0.4l-0.1,0.5l-0.1,0.3l-0.2,0.4l-0.1,0.3l-0.2,0.4l-0.2,0.3l-0.3,0.4l-0.2,0.3
		l-0.3,0.3l-0.3,0.2l-0.3,0.2l-0.3,0.2l-0.5,0.2l-0.3,0.1l-0.4,0.1l-0.3,0.1l-0.5,0.1l-0.3,0.1l-0.3,0l-0.3,0l-0.5,0h-1.8l-0.4,0
		l-0.4,0l-0.4,0l-0.3,0l-0.1,0.1l0,0.3l-0.1,1.4v0.3l0,0.6l0,0.3l0,0.5l0,0.2l-0.1,0.1l-0.1,0l-0.2,0l-0.7,0l-0.8,0h-0.3l-0.7,0
		l-0.3,0l-0.5,0l-0.3-0.1L98,47.2l0-0.3l0-0.3l0-0.3V44l0.1-1.1v-0.3l-0.1-1.1v-0.3l0-2.6v-0.3l0.1-1.1v-0.3l-0.1-1.1v-0.3l0.1-1.1
		v-0.3l0-0.6l0-0.3l0-0.2l0-0.2l0.1-0.1l0.1-0.1l0.2,0l0.6,0l0.5,0h0.3l1.4,0h1.4l1.4,0.1h1.4l0.8,0l0.3,0h0.2l0.3,0.1l0.5,0.1
		l0.3,0.1l0.3,0.1l0.3,0.1l0.3,0.2l0.3,0.2l0.4,0.3l0.3,0.2l0.1,0.1l0.4,0.4l0.2,0.3l0.1,0.1l0.1,0.3l0.1,0.1l0.1,0.3l0.1,0.3
		l0.1,0.3l0,0.1l0.1,0.3l0,0.2l0.1,0.3l0.1,0.6V37.6z M105.1,39.7l0.4,0l0.4-0.1l0.2-0.1l0.3-0.2l0.1-0.1l0.2-0.2l0.1-0.1l0.1-0.3
		l0.1-0.1l0.1-0.3l0-0.1v-0.5l-0.1-0.3L107,37l-0.1-0.3l-0.1-0.1l-0.2-0.3l-0.2-0.1l-0.3-0.2l-0.5-0.1l-0.3,0h-0.5l-0.6,0l-0.9-0.1
		h-0.3l-0.2,0l-0.2,0l-0.1,0.1l-0.1,0.1l0,0.3v0.5l0.1,0.8l0,0.3l0,1.2l0,0.3l0.1,0.1l0.2,0.1l1.1,0.1L105.1,39.7z"/>
	<path fill="#025C98" d="M128,46.8l0.1,0.3l-0.1,0.2l-0.2,0.1l-0.3,0h-0.3l-0.5,0l-0.3,0h-1l-1.3,0.1l-0.3-0.1l-0.1-0.2l-0.1-0.2
		l-0.7-1.8l-0.1-0.2l-0.2,0l-0.3,0l-1.3-0.1h-0.3l-1.6,0l-1.3,0h-0.3l-0.3,0h-1l-0.3,0l-0.2,0.1l-0.1,0.3l-0.5,1.4l-0.1,0.3
		l-0.2,0.3l-0.3,0.1l-0.3,0l-1.2-0.1h-0.3l-1.3,0.1l-0.3,0l-0.3-0.1l-0.2-0.2l0-0.3l0-0.2l0.1-0.3l0.3-0.7l0.1-0.3l0.5-1.2l0.1-0.3
		l0.5-1.2l0.1-0.3l0.5-1.1l0.1-0.3l0.6-1.2l0.1-0.3l0.8-1.7l0.6-1.3l0.1-0.3l0.5-1l0.1-0.3l0.4-1l0.1-0.3l0.4-0.9l0.1-0.2l0.2-0.1
		l0.3-0.1l1,0h1.6l1,0l0.4,0.1l0.2,0.2l0.1,0.3l0.3,0.8l0.1,0.3l0.5,1l0.1,0.3l0.5,1l0.1,0.3l0.4,1.1l0.1,0.3l0.5,1l0.1,0.3l0.5,1
		l0.1,0.3l0.4,1.1l0.1,0.3l0.7,1.3l0.5,1l0.1,0.3l0.6,1.3L128,46.8z M121,40.9l-0.1-0.3l-0.5-1.4l-0.1-0.3l-0.4-1.2l-0.1-0.3
		l-0.2-0.1l-0.3-0.1l-0.2,0.1l-0.2,0.2l-0.6,1.4l-0.1,0.3l-0.5,1.4l-0.1,0.3l0.1,0.3l0.2,0.1l0.3,0h1.3l1,0.1l0.3-0.1l0.2-0.2
		L121,40.9z"/>
	<path fill="#025C98" d="M144.9,40.2l0,0.4l0,0.5l-0.1,0.3l-0.1,0.5l-0.1,0.3l-0.1,0.3l-0.1,0.3l-0.1,0.4l-0.1,0.3l-0.2,0.5
		l-0.2,0.3l-0.3,0.3l-0.2,0.2l-0.4,0.3l-0.5,0.5l-0.3,0.2l-0.4,0.3l-0.3,0.2l-0.4,0.2l-0.3,0.1l-0.5,0.2l-0.3,0.1l-0.3,0.1l-0.3,0.1
		l-1.3,0.2l-0.3,0l-0.5,0h-0.3l-0.7,0l-0.5,0h-0.3l-0.7,0l-0.5,0l-0.4,0l-0.3,0h-1.5l-0.3,0l-0.9-0.1l-0.2-0.1l-0.1-0.1l0-0.2l0-0.3
		l0-0.2l0-0.6v-0.3l0-0.5v-0.3l0-0.3V44l0-1.1v-0.3l0-1.1l0-0.3l0-0.5l0-0.3l0-0.4v-0.3l0-0.5l0-0.4v-0.2l0-0.4l0.1-1.1v-0.3l0-1.1
		v-0.3l-0.1-1.1v-0.8l0-0.3l0.1-0.3l0-0.2l0.1-0.1l0.2-0.1l0.4,0l0.3,0l0.3,0l1.9,0h0.3l1,0.1l0.2,0h0.4l0.9,0l0.3,0h0.3l0.5,0
		l0.7,0l0.3,0l0.5,0.1l0.3,0.1l0.3,0.1l0.8,0.3l0.3,0.1l0.3,0.2l0.3,0.2l0.7,0.5l0.3,0.2l0.3,0.2l0.5,0.4l0.2,0.2l0.2,0.2l0.1,0.3
		l0.2,0.5l0.1,0.3l0.1,0.3l0.1,0.3l0.1,0.3l0.1,0.3l0.1,0.5l0.1,0.3l0.1,0.4l0,0.3l0,0.5l0,0.3L144.9,40.2z M140.1,42l0.1-0.3
		l0.1-0.4l0.1-0.3l0.1-0.5l0-0.3l0-0.5v-0.7l0-0.3l-0.1-0.5l-0.1-0.3l0-0.1l-0.2-0.3l-0.3-0.4l-0.1-0.1l-0.2-0.2l-0.2-0.2l-0.3-0.2
		l-0.5-0.3l-0.3-0.1l-0.3-0.1l-0.3-0.1l-0.5,0l-0.4,0h-0.5l-0.5,0l-0.3,0l-0.5,0.1l-0.2,0.1l-0.1,0.1l-0.1,0.3l0,0.2l0,0.3l0,0.6
		l0,0.3l0,0.5l0,0.3l0,0.3v0.3l0,0.5v1l0,0.4l0,0.3l0,0.5v0.3l0,0.5l0,0.3l0.1,0.5l0.1,0.2l0.1,0.1l0.3,0l2-0.1l0.5,0l0.3-0.1
		l0.4-0.1l0.3-0.1l0.3-0.1l0.3-0.2l0.4-0.3l0.2-0.3L140.1,42z"/>
	<path fill="#025C98" d="M161.2,40l0,0.7l0,0.3l0,0.5l0,0.3l-0.1,0.5l-0.1,0.3l-0.1,0.5l-0.1,0.3l-0.2,0.4l-0.1,0.3l-0.2,0.4
		l-0.1,0.3l-0.3,0.4l-0.2,0.3l-0.3,0.3l-0.3,0.2l-0.4,0.3l-0.3,0.2l-0.4,0.3l-0.3,0.1l-0.4,0.2l-0.3,0.1l-0.5,0.2l-0.3,0.1l-0.5,0.1
		l-0.3,0.1l-0.7,0h-1l-0.5,0l-0.3,0l-1.2-0.1l-0.3-0.1l-0.2,0l-0.3-0.1l-0.2-0.1l-0.3-0.1L150,47l-0.3-0.2l-0.3-0.2l-0.5-0.5
		l-0.2-0.2l-0.3-0.4l-0.2-0.3l-0.3-0.5l-0.2-0.3l-0.2-0.3l-0.1-0.3l-0.1-0.3l-0.1-0.3l-0.1-0.3l-0.1-0.5l-0.1-0.4l0-0.4l0-0.7l0-0.3
		l0.1-1.3V39l0-1.3v-0.3l0.1-1.3v-2l0-0.7v-0.4l0-0.4l0.1-0.3l0.1-0.2l0.3-0.1l0.7,0l0.8,0.1h0.3l0.7,0l0.3,0l0.5,0l0.3,0.1l0.2,0.2
		l0.1,0.3l0,0.3v0.3l0,0.8v0.3l0.1,1.3v0.3l0,1.3v0.3l-0.1,1.3v0.3l0,1.3l0,0.3l0,0.5l0.1,0.3l0.1,0.5l0.1,0.3l0.2,0.5l0.2,0.3
		l0.3,0.4l0.3,0.2l0.5,0.2l0.3,0.1l0.5,0h0.3l0.5-0.1L155,44l0.4-0.2l0.3-0.2l0.3-0.3l0.2-0.3l0.2-0.4l0.1-0.3l0.1-0.3l0.1-0.3
		l0.1-0.6l0-0.3l-0.1-1.3v-0.3l0.1-1.3v-0.3l0-1.3v-0.3l0-1.3l0-0.3l-0.1-0.9v-0.5l0.1-0.3l0.2-0.2l0.3-0.1h0.4l1.1,0.1h0.3l0.8-0.1
		h0.3l0.3,0l0.3,0.1l0.2,0.1l0,0.3l0,0.6v0.3l0,0.5v0.3l0.1,1.3v0.3l0,1.3v0.3l-0.1,1.3L161.2,40z"/>
	<path fill="#025C98" d="M178.1,47.4l-0.3,0.1h-1.5l-1.2,0h-0.3l-1,0h-0.3l-0.2-0.1l-0.2-0.2l-0.7-1l-0.2-0.3l-0.7-0.9l-0.2-0.3
		l-0.6-1l-0.2-0.3l-0.7-0.9l-0.1-0.2l-0.1-0.1l-0.3,0l-0.7,0l-0.3,0l-0.2,0.1l-0.1,0.3l0,1.2l0,0.3l0.1,1.2l0,0.3l0,0.5v0.3l0,0.3
		l0,0.3l-0.1,0.1l-0.2,0.1h-0.3l-1-0.1l-1,0.1h-0.3l-1-0.1l-0.3,0l-0.1-0.1l0-0.2l0-0.3l0-0.3l0-0.5l0-0.3l0.1-1.1v-0.3l-0.1-1.1
		l0-0.3l0-1.1v-0.3l0.1-1.1v-0.3l-0.1-1.1v-0.3l0.1-1.1v-0.3l0-1.1v-0.3l0-1.1v-0.3l0-0.7l0-0.3l0-0.1l0.1-0.3l0.1-0.2l0.3-0.1
		l0.2,0l0.3,0l1,0l2.5,0.1l1.4-0.1h0.3l1.4,0.1h0.8l0.4,0l0.3,0.1l0.4,0.1l0.3,0.1l0.3,0.1l0.3,0.1l0.3,0.1l0.3,0.2l0.4,0.3l0.2,0.2
		l0.2,0.2l0.2,0.3l0.3,0.4l0.2,0.3l0.3,0.4l0.1,0.3l0.1,0.3l0.1,0.3l0.1,0.3l0,0.3l0,0.5v0.3l0,0.3l0,0.4l-0.1,0.4l-0.1,0.3
		l-0.1,0.3l-0.1,0.3l-0.2,0.3l-0.2,0.3l-0.2,0.3l-0.2,0.2l-0.3,0.3l-0.2,0.2l-0.4,0.2l-0.3,0.1l-0.3,0.1l-0.3,0.1l-0.2,0.1l0.1,0.2
		l0.8,1.1l0.2,0.3l0.8,1l0.2,0.3l0.8,1.1l0.2,0.3l0.7,0.8l0.2,0.2l0.1,0.2L178.1,47.4z M171.7,39.2l0.5-0.1l0.3-0.1l0.3-0.1l0.2-0.3
		l0.1-0.3l0.1-0.3l0-0.3l0-0.4l0-0.4l-0.1-0.3l-0.1-0.3l-0.2-0.3l-0.2-0.2l-0.3-0.1l-0.5-0.1l-0.3,0l-1.1,0h-0.3l-1.1,0.1l-0.3,0
		l-0.1,0.1l-0.1,0.1l0,0.2l0,0.5l0,0.3l0,0.4l0,0.4l0,1.2l0,0.2l0,0.1l0.1,0.1l0.3,0l1.1,0.1h0.3L171.7,39.2z"/>
	<path fill="#025C98" d="M196.2,46.8l0.1,0.3l-0.1,0.2l-0.2,0.1l-0.3,0h-0.3l-0.5,0l-0.3,0h-1l-1.3,0.1l-0.3-0.1l-0.1-0.2l-0.1-0.2
		l-0.7-1.8l-0.1-0.2l-0.2,0l-0.3,0l-1.3-0.1h-0.3l-1.6,0l-1.3,0h-0.3l-0.3,0h-1l-0.3,0L184,45l-0.1,0.3l-0.5,1.4l-0.1,0.3l-0.2,0.3
		l-0.3,0.1l-0.3,0l-1.2-0.1h-0.3l-1.3,0.1l-0.3,0l-0.3-0.1l-0.2-0.2l0-0.3l0-0.2l0.1-0.3l0.3-0.7l0.1-0.3l0.5-1.2l0.1-0.3l0.5-1.2
		l0.1-0.3l0.5-1.1l0.1-0.3l0.6-1.2l0.1-0.3l0.8-1.7l0.6-1.3l0.1-0.3l0.5-1l0.1-0.3l0.4-1l0.1-0.3l0.4-0.9l0.1-0.2l0.2-0.1l0.3-0.1
		l1,0h1.6l1,0l0.4,0.1l0.2,0.2l0.1,0.3l0.3,0.8l0.1,0.3l0.5,1l0.1,0.3l0.5,1l0.1,0.3l0.4,1.1l0.1,0.3l0.5,1l0.1,0.3l0.5,1l0.1,0.3
		l0.4,1.1l0.1,0.3l0.7,1.3l0.5,1l0.1,0.3l0.6,1.3L196.2,46.8z M189.1,40.9l-0.1-0.3l-0.5-1.4l-0.1-0.3l-0.4-1.2l-0.1-0.3l-0.2-0.1
		l-0.3-0.1l-0.2,0.1l-0.2,0.2l-0.6,1.4l-0.1,0.3l-0.5,1.4l-0.1,0.3l0.1,0.3l0.2,0.1l0.3,0h1.3l1,0.1l0.3-0.1l0.2-0.2L189.1,40.9z"/>
</g>
<g>
	<path fill="#1E1E1E" d="M122.5,28.2L122.5,28.2l-0.3,0.3l-0.1,0.1l-0.2,0.2l-0.1,0.1l-0.2,0.1l-0.1,0.1l-0.3,0.1l-0.2,0.1l-0.2,0.1
		l-0.2,0l-0.3,0.1l-0.4,0l-0.2,0l-0.3,0h-0.6l-0.2,0l-0.2,0l-0.2,0l-0.2,0l-0.2-0.1l-0.5-0.1l-0.2-0.1L117,29l-0.2-0.1l-0.1-0.1
		l-0.1-0.1l-0.2-0.1l-0.3-0.2l-0.1-0.1l-0.1-0.1l-0.1-0.2l-0.1-0.2l-0.1-0.2l-0.1-0.2l-0.1-0.2l-0.2-0.5l-0.1-0.2l-0.1-0.3l0-0.2
		l0-0.3l0-0.2l0-0.2v-0.2l0-0.4l0-0.2l0-0.2l0-0.2l0-0.2l0.1-0.2l0.1-0.2l0.1-0.2l0.1-0.2l0.1-0.2l0.1-0.2l0.1-0.2l0.1-0.2l0.1-0.1
		l0.1-0.2l0.1-0.1l0.1-0.1l0.1-0.1l0.1-0.1l0.4-0.2l0.1-0.1l0.2-0.1l0.3-0.2l0.2-0.1l0.2-0.1l0.4-0.1l0.2,0l0.2,0l0.3,0l0.2,0l0.2,0
		l0.2,0L120,21l0.2,0l0.3,0l0.4,0.1l0.2,0.1l0.2,0.1l0.2,0.1l0.3,0.2l0.3,0.2l0.1,0.1l0.1,0.1l0.1,0.1l0,0.1l0,0.1l-0.1,0.1
		l-0.1,0.1l-0.1,0.1l-0.1,0.1l-0.1,0.1l-0.1,0.1l-0.2,0.2l-0.1,0.1l-0.1,0.1l-0.1,0.1l-0.1,0l-0.1,0l-0.1,0l-0.1-0.1l-0.2-0.2
		l-0.1-0.1l-0.2-0.1l-0.2-0.1l-0.2-0.1l-0.2,0l-0.3,0h-0.2l-0.2,0l-0.2,0l-0.2,0.1l-0.2,0.1l-0.1,0.1l-0.2,0.1l-0.2,0.1l-0.1,0.1
		l-0.1,0.1l-0.1,0.2l-0.1,0.1l-0.1,0.2l-0.1,0.2l-0.1,0.2l0,0.2l0,0.2l0,0.3v0.2l0,0.3l0,0.2l0.1,0.3l0.1,0.2l0.1,0.2l0.1,0.2
		l0.2,0.2l0.1,0.1l0.2,0.2l0.1,0.1l0.2,0.1l0.2,0.1l0.2,0.1l0.2,0l0.3,0h0.3l0.2,0l0.1,0l0.2-0.1l0.3-0.1l0.2-0.1l0.2-0.1l0.1-0.1
		l0.2-0.1l0.1-0.1l0.1-0.1l0.1,0l0.1,0l0.1,0.1l0.1,0.1l0,0.1l0.1,0.1l0.2,0.2l0.1,0.1l0.3,0.3l0.1,0.1l0.1,0.1L122.5,28.2
		L122.5,28.2z"/>
	<path fill="#1E1E1E" d="M131.6,25.1l0,0.2l0,0.3l0,0.2l-0.1,0.3l0,0.3l0,0.2l0,0.2l0,0.2l-0.1,0.2l-0.1,0.2l-0.3,0.5l-0.1,0.1
		l-0.1,0.1l-0.1,0.1l-0.2,0.2l-0.1,0.1l-0.1,0.1l-0.1,0.1l-0.2,0.1l-0.1,0.1l-0.2,0.1l-0.2,0.1l-0.2,0.1l-0.2,0l-0.4,0.1l-0.2,0.1
		l-0.2,0l-0.2,0l-0.2,0l-0.2,0H127l-0.4,0l-0.4,0l-0.2,0l-0.2,0l-0.6-0.2l-0.2-0.1l-0.2-0.1l-0.4-0.2l-0.2-0.1l-0.2-0.1l-0.1-0.1
		l-0.1-0.1l-0.1-0.1l-0.1-0.1l-0.3-0.3l-0.1-0.1l-0.1-0.1l-0.1-0.1l-0.1-0.2l-0.2-0.5l-0.1-0.2l0-0.2l0-0.2l0-0.2l0-0.2l0-0.2l0-0.2
		v-0.2l0-0.2l0-0.2l0-0.2l0-0.2l0-0.2l0.1-0.2l0.1-0.2l0.1-0.2l0.1-0.3l0.1-0.2l0-0.1l0.1-0.2l0.2-0.2l0.1-0.2l0.1-0.1l0.1-0.1
		l0.2-0.2L124,22l0.1-0.1l0.3-0.2l0.1-0.1l0.2-0.1l0.2-0.1l0.2-0.1l0.2-0.1l0.2-0.1l0.2,0l0.4-0.1l0.2,0l0.6-0.1l0.4,0l0.3,0l0.3,0
		l0.2,0l0.2,0l0.2,0l0.2,0l0.2,0l0.2,0l0.2,0.1l0.2,0.1l0.2,0.1l0.4,0.2l0.1,0.1l0.1,0.1l0.2,0.2l0.1,0.1l0.1,0.1l0.1,0.1l0.2,0.2
		l0.1,0.1l0.1,0.1l0.1,0.1l0.1,0.2l0.1,0.1l0.1,0.2l0.1,0.2l0.1,0.3l0.1,0.3l0,0.2l0,0.2L131.6,25.1z M128.9,26.5l0.1-0.2l0.1-0.2
		l0.1-0.2l0.1-0.3l0-0.2l0-0.3v-0.2l0-0.2l0-0.2l-0.1-0.3l0-0.2L129,24l-0.1-0.1l-0.2-0.2l-0.1-0.1l-0.2-0.2l-0.1-0.1l-0.3-0.2
		l-0.2-0.1l-0.2-0.1l-0.2,0l-0.4,0l-0.2,0l-0.2,0l-0.2,0l-0.3,0.1l-0.2,0.1l-0.3,0.1l-0.2,0.1l-0.2,0.2l-0.1,0.1l-0.1,0.2l-0.1,0.1
		l0,0.1l-0.1,0.2l-0.1,0.2l0,0.1l0,0.2l0,0.2l0,0.2l0,0.2v0.2l0,0.2l0,0.2l0,0.1l0,0.2l0,0.1l0.1,0.2l0,0.1l0.1,0.2l0.1,0.1l0.1,0.2
		l0.1,0.1l0.1,0.1l0.2,0.2l0.2,0.1l0.2,0.1l0.2,0.1l0.2,0.1l0.2,0l0.3,0l0.2,0l0.3,0l0.2,0l0.2-0.1l0.2-0.1l0.2-0.2l0.1-0.1l0.2-0.2
		l0.1-0.1L128.9,26.5z"/>
	<path fill="#1E1E1E" d="M141.8,28.2l0,0.2l0,0.3l0,0.2l0,0.1l0,0.1l-0.1,0.1l-0.1,0.1l-0.1,0l-0.2,0h-0.2l-0.5,0l-0.2,0h-0.3
		l-0.2,0l-0.4-0.1l-0.1,0l0-0.1l0-0.1l0-0.2l0-0.2l0-0.4v-1.1l0-0.7v-0.2l0-0.7v-0.9l0-0.1l-0.1,0h-0.1l-0.1,0.1l-0.1,0.2l-0.5,0.5
		l-0.7,0.8l-0.5,0.6l-0.1,0.1l-0.1,0h-0.1l-0.1,0l-0.1,0l-0.1-0.1l-0.6-0.7l-0.4-0.6l-0.1-0.1l-0.6-0.7l-0.1-0.1l-0.1,0l0,0.1l0,0.7
		v0.2l0,0.7v0.2l0,0.7v0.2l0,0.7v0.2l0,0.3l0,0.2l0,0.2l0,0.1l0,0.1l-0.1,0l-0.3,0l-0.2,0l-0.4,0l-0.2,0l-0.5,0H133l-0.1,0l-0.1-0.1
		l0-0.1l0-0.1v-0.3l0-0.3v-1.7l0-0.6v-0.2l0-0.6l0-0.2l0-0.6v-0.2l0-0.6l0-0.2l0-0.6l0-0.2l0-0.6V22l0-0.4v-0.2l0-0.1l0-0.1l0.1-0.1
		l0.1,0l0.1,0l0.2,0l0.2,0.1h0.2l0.3,0l0.2,0l0.2,0l0.4,0h0.1l0.1,0.1l0.1,0.1l0.4,0.4l0.1,0.1l0.3,0.5l0.1,0.1l0.4,0.4l0.1,0.2
		l0.3,0.4l0.1,0.1l0.1,0.1h0.1l0.1-0.1l0.1-0.1l0.3-0.5l0.1-0.2l0.4-0.4l0.1-0.1l0.4-0.4l0.1-0.1l0.3-0.4l0.1-0.1l0.1-0.1l0.1-0.1
		l0.1,0l0.6,0l0.5,0h0.2l0.3,0l0.2,0l0.1,0l0.1,0l0.1,0.1l0,0.1l0,0.1l0,0.5l0,0.2l0,0.6v0.2l0,0.6v0.2l0,0.6v0.2l0,0.6v0.2l0,0.6
		v0.2l0,0.6v0.2l0,0.6v0.2L141.8,28.2z"/>
</g>
</svg>
